General
Unique ID                                : 231940582015948301948572049581048571029 (0xAE712B5C3F0D9E8A2F4B6C7D8E9F0A1B)
Complete name                            : Star.Wars.Episode.I.The.Phantom.Menace.1999.2160p.DSNP.WEB-DL.DDP5.1.Atmos.DV.HDR.HEVC-FLUX.mkv
Format                                   : Matroska
Format version                           : Version 4
File size                                : 19.1 GiB
Duration                                 : 2 h 16 min
Overall bit rate                         : 20.1 Mb/s
Frame rate                               : 23.976 FPS
Encoded date                             : 2024-11-12 14:22:10 UTC
Writing application                      : mkvmerge v85.0 ('The Great Escape') 64-bit
Writing library                          : libebml v1.4.5 + libmatroska v1.7.1

Video
ID                                       : 1
Format                                   : HEVC
Format/Info                              : High Efficiency Video Coding
Format profile                           : Main 10@L5.1@High
HDR format                               : Dolby Vision, Version 1.0, dvhe.08.06, BL+RPU, HDR10 compatible / SMPTE ST 2086, HDR10 compatible
Codec ID                                 : V_MPEGH/ISO/HEVC
Duration                                 : 2 h 16 min
Bit rate                                 : 19.3 Mb/s
Width                                    : 3 840 pixels
Height                                   : 2 160 pixels
Display aspect ratio                     : 16:9
Frame rate mode                          : Constant
Frame rate                               : 23.976 (24000/1001) FPS
Color space                              : YUV
Chroma subsampling                       : 4:2:0 (Type 2)
Bit depth                                : 10 bits
Bits/(Pixel*Frame)                       : 0.097
Stream size                              : 18.3 GiB (96%)
Title                                    : Star Wars: Episode I – The Phantom Menace
Language                                 : English
Default                                  : Yes
Forced                                   : No
Color range                              : Limited
Color primaries                          : BT.2020
Transfer characteristics                 : PQ
Matrix coefficients                      : BT.2020 non-constant
Mastering display color primaries        : BT.2020
Mastering display luminance              : min: 0.0001 cd/m2, max: 1000 cd/m2
Maximum Content Light Level              : 1000 cd/m2
Maximum Frame-Average Light Level        : 147 cd/m2

Audio #1
ID                                       : 2
Format                                   : E-AC-3 JOC
Format/Info                              : Enhanced AC-3 with Joint Object Coding
Commercial name                          : Dolby Atmos
Codec ID                                 : A_EAC3
Duration                                 : 2 h 16 min
Bit rate mode                            : Constant
Bit rate                                 : 768 kb/s
Channel(s)                               : 6 channels
Channel layout                           : L R C LFE Ls Rs
Sampling rate                            : 48.0 kHz
Frame rate                               : 31.250 FPS (1536 SPF)
Compression mode                         : Lossy
Stream size                              : 749 MiB (4%)
Title                                    : English Atmos
Language                                 : English
Service kind                             : Complete Main
Default                                  : Yes
Forced                                   : No

Audio #2
ID                                       : 3
Format                                   : AC-3
Format/Info                              : Audio Coding 3
Commercial name                          : Dolby Digital
Codec ID                                 : A_AC3
Duration                                 : 2 h 16 min
Bit rate mode                            : Constant
Bit rate                                 : 256 kb/s
Channel(s)                               : 2 channels
Channel layout                           : L R
Sampling rate                            : 48.0 kHz
Frame rate                               : 31.250 FPS (1536 SPF)
Compression mode                         : Lossy
Stream size                              : 250 MiB (1%)
Title                                    : English Descriptive Audio
Language                                 : English
Service kind                             : Visually Impaired
Default                                  : No
Forced                                   : No

Text #1
ID                                       : 4
Format                                   : UTF-8
Codec ID                                 : S_TEXT/UTF-8
Codec ID/Info                            : UTF-8 Plain Text
Duration                                 : 2 h 09 min
Bit rate                                 : 51 b/s
Frame rate                               : 0.170 FPS
Count of elements                        : 1324
Stream size                              : 49.2 KiB (0%)
Title                                    : English (SDH)
Language                                 : English
Default                                  : No
Forced                                   : No

Text #2
ID                                       : 5
Format                                   : UTF-8
Codec ID                                 : S_TEXT/UTF-8
Codec ID/Info                            : UTF-8 Plain Text
Duration                                 : 2 h 08 min
Bit rate                                 : 44 b/s
Frame rate                               : 0.142 FPS
Count of elements                        : 1102
Stream size                              : 41.5 KiB (0%)
Title                                    : Spanish (Latin American)
Language                                 : Spanish
Default                                  : No
Forced                                   : No

Text #3
ID                                       : 6
Format                                   : UTF-8
Codec ID                                 : S_TEXT/UTF-8
Codec ID/Info                            : UTF-8 Plain Text
Duration                                 : 2 h 08 min
Bit rate                                 : 46 b/s
Frame rate                               : 0.145 FPS
Count of elements                        : 1125
Stream size                              : 43.1 KiB (0%)
Title                                    : French (Canadian)
Language                                 : French
Default                                  : No
Forced                                   : No

Menu
00:00:00.000                             : en:Lucasfilm Logo
00:00:32.407                             : en:A Long Time Ago...
00:00:37.746                             : en:Main Title / Crawl
00:02:04.165                             : en:The Republic Cruiser
00:04:47.378                             : en:The Invasion Begins
00:10:12.695                             : en:Jar Jar Binks
00:13:30.935                             : en:Otoh Gunga
00:19:12.318                             : en:The Planet Core
00:23:55.393                             : en:The Rescue of the Queen
00:28:44.806                             : en:Escape from Naboo
00:32:15.517                             : en:The Outskirts of Tatooine
00:36:09.126                             : en:Watto's Shop
00:41:43.084                             : en:The Sandstorm
00:46:12.395                             : en:Meeting Shmi / Dinner
00:53:05.182                             : en:Introducing C-3PO
00:56:44.234                             : en:Seeding the Podracer
01:00:25.830                             : en:Anakin's Midichlorian Count
01:04:12.849                             : en:The Podrace Begins
01:10:45.366                             : en:Anakin's Victory
01:16:32.505                             : en:Leaving Tatooine
01:21:55.787                             : en:Darth Maul Attacks
01:25:30.012                             : en:Arrival at Coruscant
01:29:12.548                             : en:The Jedi Temple
01:34:02.196                             : en:The Senate Session
01:42:15.321                             : en:The Queen's Decision
01:46:12.723                             : en:Anakin's Audition
01:50:35.421                             : en:Return to Naboo
01:55:12.894                             : en:The Gungan Sacred Place
01:59:12.228                             : en:Battle Plans
02:03:00.115                             : en:The Battle of Naboo
02:11:45.327                             : en:Duel of the Fates
02:16:12.864                             : en:End Credits